  <svg xmlns="http://www.w3.org/2000/svg" style="display: none;">

 <symbol id="icon-home">
    <path d="M18 6.5H9V4.5H7V6.5H6L2 10.5V19.5H22V10.5L18 6.5ZM4 12.5H14V17.5H4V12.5ZM20 17.5H16V11.33L18 9.33L20 11.33V17.5Z" fill="inherit" />
  </symbol>

 <symbol id="icon-bloggers">
    <path d="M11.8203 6C12.9249 6 13.8203 5.10457 13.8203 4C13.8203 2.89543 12.9249 2 11.8203 2C10.7157 2 9.82031 2.89543 9.82031 4C9.82031 5.10457 10.7157 6 11.8203 6Z" fill="inherit" />
    <path d="M15.7103 8.11C15.3203 7.72 14.6503 7 13.3503 7C13.1403 7 11.9303 7 10.8103 7C8.06031 6.99 5.82031 4.75 5.82031 2H3.82031C3.82031 5.16 5.93031 7.84 8.82031 8.71V22H10.8203V16H12.8203V22H14.8203V10.05L18.7703 14L20.1803 12.59L15.7103 8.11Z" fill="inherit" />
  </symbol>

   <symbol id="icon-brands">
   <path d="M9.68 13.19L12 11.43L14.31 13.19L13.43 10.34L15.75 8.5H12.91L12 5.69L11.09 8.5H8.25L10.56 10.34L9.68 13.19ZM20 9.5C20 5.08 16.42 1.5 12 1.5C7.58 1.5 4 5.08 4 9.5C4 11.53 4.76 13.37 6 14.78V22.5L12 20.5L18 22.5V14.78C19.24 13.37 20 11.53 20 9.5ZM12 3.5C15.31 3.5 18 6.19 18 9.5C18 12.81 15.31 15.5 12 15.5C8.69 15.5 6 12.81 6 9.5C6 6.19 8.69 3.5 12 3.5Z" fill="inherit" />
  </symbol>

   <symbol id="icon-platforms">
     <mask id="mask0_4059_6420" style="mask-type:alpha" maskUnits="userSpaceOnUse" x="0" y="1" width="24" height="22">
    <path d="M2.84846 4.15574H21.1515C21.8706 4.15574 22.4589 3.56743 22.4589 2.84838C22.4589 2.12933 21.8706 1.54102 21.1515 1.54102H2.84846C2.12941 1.54102 1.5411 2.12933 1.5411 2.84838C1.5411 3.56743 2.12941 4.15574 2.84846 4.15574ZM22.6681 6.50899C22.5504 5.90761 22.0144 5.4631 21.3869 5.4631H2.61314C1.9856 5.4631 1.44958 5.90761 1.33192 6.50899L0.0245582 13.0458C-0.132325 13.8564 0.482135 14.6146 1.30577 14.6146H1.5411V21.1515C1.5411 21.8705 2.12941 22.4588 2.84846 22.4588H13.3074C14.0264 22.4588 14.6147 21.8705 14.6147 21.1515V14.6146H19.8442V21.1515C19.8442 21.8705 20.4325 22.4588 21.1515 22.4588C21.8706 22.4588 22.4589 21.8705 22.4589 21.1515V14.6146H22.6942C23.5179 14.6146 24.1323 13.8564 23.9754 13.0458L22.6681 6.50899ZM12 19.8441H4.15582V14.6146H12V19.8441Z" fill="black" />
  </mask>
  <g mask="url(#mask0_4059_6420)">
    <rect y="-0.000976562" width="24" height="24" fill="inherit" />
  </g>
  </symbol>

    <symbol id="icon-adv">
    <path d="M20 2H4C2.9 2 2 2.9 2 4V22L6 18H20C21.1 18 22 17.1 22 16V4C22 2.9 21.1 2 20 2Z" fill="inherit" />
  </symbol>
  
    <symbol id="icon-deal">
      <mask id="mask0_4059_3955" style="mask-type:alpha" maskUnits="userSpaceOnUse" x="2" y="0" width="20" height="24">
    <path fill-rule="evenodd" clip-rule="evenodd" d="M8.66885 1.33714C9.56468 0.494386 10.7642 0.0332031 12.0002 0.0332031C13.2362 0.0332031 14.4358 0.494386 15.3316 1.33714C16.23 2.18232 16.7502 3.34554 16.7502 4.5758V10.3148C16.7502 11.0051 16.1906 11.5648 15.5002 11.5648C14.8099 11.5648 14.2502 11.0051 14.2502 10.3148V4.5758C14.2502 4.05956 14.0329 3.54781 13.6186 3.15803C13.2017 2.76582 12.6208 2.5332 12.0002 2.5332C11.3797 2.5332 10.7988 2.76582 10.3818 3.15803C9.96751 3.54781 9.75022 4.05956 9.75022 4.5758V10.3148C9.75022 11.0051 9.19057 11.5648 8.50022 11.5648C7.80986 11.5648 7.25022 11.0051 7.25022 10.3148V4.5758C7.25022 3.34554 7.77042 2.18232 8.66885 1.33714Z" fill="#006FFD" />
    <path d="M6.11496 7.23038C4.41014 7.23038 2.99507 8.5477 2.87326 10.2482L2.15691 20.2482C2.02213 22.1297 3.51223 23.7304 5.39861 23.7304H18.6018C20.4882 23.7304 21.9783 22.1297 21.8435 20.2482L21.1272 10.2482C21.0053 8.54771 19.5903 7.23038 17.8855 7.23038H6.11496Z" fill="#006FFD" />
  </mask>
  <g mask="url(#mask0_4059_3955)">
    <rect width="24" height="24" fill="inherit" />
  </g>
  </symbol>

     <symbol id="icon-ad">
     <path d="M18 11V13H22V11H18ZM16 17.61C16.96 18.32 18.21 19.26 19.2 20C19.6 19.47 20 18.93 20.4 18.4C19.41 17.66 18.16 16.72 17.2 16C16.8 16.54 16.4 17.08 16 17.61ZM20.4 5.6C20 5.07 19.6 4.53 19.2 4C18.21 4.74 16.96 5.68 16 6.4C16.4 6.93 16.8 7.47 17.2 8C18.16 7.28 19.41 6.35 20.4 5.6ZM4 9C2.9 9 2 9.9 2 11V13C2 14.1 2.9 15 4 15H5V19H7V15H8L13 18V6L8 9H4ZM15.5 12C15.5 10.67 14.92 9.47 14 8.65V15.34C14.92 14.53 15.5 13.33 15.5 12Z" fill="inherit" />
  </symbol>

     <symbol id="icon-advertisers">
     <path d="M19 0H5C4.45 0 4 0.45 4 1C4 1.55 4.45 2 5 2H19C19.55 2 20 1.55 20 1C20 0.45 19.55 0 19 0ZM5 24H19C19.55 24 20 23.55 20 23C20 22.45 19.55 22 19 22H5C4.45 22 4 22.45 4 23C4 23.55 4.45 24 5 24ZM20 4H4C2.9 4 2 4.9 2 6V18C2 19.1 2.9 20 4 20H20C21.1 20 22 19.1 22 18V6C22 4.9 21.1 4 20 4ZM12 6.75C13.24 6.75 14.25 7.76 14.25 9C14.25 10.24 13.24 11.25 12 11.25C10.76 11.25 9.75 10.24 9.75 9C9.75 7.76 10.76 6.75 12 6.75ZM17 17H7V15.5C7 13.83 10.33 13 12 13C13.67 13 17 13.83 17 15.5V17Z" fill="inherit" />
  </symbol>

     <symbol id="icon-balance">
      <path d="M18 4H6C3.79 4 2 5.79 2 8V16C2 18.21 3.79 20 6 20H18C20.21 20 22 18.21 22 16V8C22 5.79 20.21 4 18 4ZM16.14 13.77C15.9 13.97 15.57 14.05 15.26 13.97L4.15 11.25C4.45 10.52 5.16 10 6 10H18C18.67 10 19.26 10.34 19.63 10.84L16.14 13.77ZM6 6H18C19.1 6 20 6.9 20 8V8.55C19.41 8.21 18.73 8 18 8H6C5.27 8 4.59 8.21 4 8.55V8C4 6.9 4.9 6 6 6Z" fill="inherit" />
  </symbol>

     <symbol id="icon-settings">
       <g clip-path="url(#clip0_4059_1054)">
    <mask id="mask0_4059_1054" style="mask-type:alpha" maskUnits="userSpaceOnUse" x="0" y="0" width="24" height="24">
      <path d="M23.7032 10.1761L21.0205 9.37608C20.8351 8.72913 20.58 8.10415 20.2598 7.51208L21.5731 5.0561C21.6224 4.96339 21.6404 4.85729 21.6245 4.75352C21.6087 4.64976 21.5597 4.55388 21.485 4.4801L19.5711 2.56011C19.4973 2.48545 19.4013 2.43656 19.2974 2.42071C19.1936 2.40485 19.0874 2.42288 18.9946 2.47211L16.5522 3.7761C15.9537 3.44063 15.3199 3.17234 14.6623 2.97611L13.8615 0.328121C13.8277 0.230534 13.7637 0.146201 13.6788 0.0872595C13.5939 0.0283181 13.4924 -0.00219138 13.3891 0.000122534H10.6824C10.5785 0.000606191 10.4773 0.03423 10.3938 0.0961006C10.3103 0.157971 10.2487 0.24486 10.218 0.344121L9.4172 2.98411C8.75417 3.17929 8.11494 3.44761 7.51134 3.7841L5.10899 2.48811C5.0162 2.43888 4.90998 2.42085 4.80612 2.43671C4.70226 2.45256 4.60628 2.50145 4.53243 2.57611L2.58653 4.4721C2.51179 4.54588 2.46286 4.64176 2.44699 4.74552C2.43112 4.84928 2.44916 4.95539 2.49844 5.0481L3.79571 7.44809C3.45943 8.04856 3.19086 8.68444 2.99493 9.34408L0.344337 10.1441C0.244978 10.1747 0.158004 10.2363 0.0960724 10.3197C0.034141 10.4032 0.000484132 10.5042 0 10.6081V13.3121C0.000484132 13.4159 0.034141 13.517 0.0960724 13.6004C0.158004 13.6839 0.244978 13.7454 0.344337 13.7761L3.01094 14.576C3.20901 15.2247 3.47754 15.8497 3.81172 16.44L2.49844 18.952C2.44916 19.0447 2.43112 19.1508 2.44699 19.2546C2.46286 19.3584 2.51179 19.4542 2.58653 19.528L4.5004 21.44C4.57425 21.5147 4.67023 21.5636 4.77409 21.5794C4.87795 21.5953 4.98416 21.5772 5.07696 21.528L7.55138 20.208C8.13672 20.5236 8.75417 20.7757 9.39318 20.96L10.194 23.656C10.2246 23.7553 10.2862 23.8422 10.3698 23.904C10.4533 23.9659 10.5544 23.9995 10.6584 24H13.3651C13.469 23.9995 13.5702 23.9659 13.6537 23.904C13.7372 23.8422 13.7988 23.7553 13.8295 23.656L14.6303 20.952C15.2639 20.7667 15.8759 20.5146 16.4561 20.2L18.9465 21.528C19.0393 21.5772 19.1455 21.5953 19.2494 21.5794C19.3532 21.5636 19.4492 21.5147 19.5231 21.44L21.4369 19.528C21.5117 19.4542 21.5606 19.3584 21.5765 19.2546C21.5924 19.1508 21.5743 19.0447 21.525 18.952L20.1957 16.472C20.5139 15.8902 20.769 15.276 20.9565 14.64L23.6551 13.8401C23.7545 13.8094 23.8414 13.7479 23.9034 13.6644C23.9653 13.581 23.999 13.4799 23.9995 13.3761V10.6481C24.0042 10.5486 23.9783 10.45 23.9254 10.3657C23.8724 10.2813 23.7949 10.2151 23.7032 10.1761ZM12.0358 16.4C11.1647 16.4 10.3131 16.142 9.58886 15.6585C8.86458 15.175 8.30007 14.4879 7.96671 13.6839C7.63336 12.8799 7.54614 11.9952 7.71608 11.1417C7.88603 10.2882 8.30549 9.50416 8.92145 8.88881C9.5374 8.27346 10.3222 7.8544 11.1765 7.68463C12.0309 7.51485 12.9164 7.60199 13.7212 7.93501C14.526 8.26804 15.2139 8.83199 15.6978 9.55557C16.1818 10.2791 16.4401 11.1298 16.4401 12.0001C16.4401 13.167 15.976 14.2862 15.1501 15.1113C14.3241 15.9365 13.2039 16.4 12.0358 16.4Z" fill="#006FFD" />
    </mask>
    <g mask="url(#mask0_4059_1054)">
      <rect width="24" height="24" fill="inherit" />
    </g>
  </g>
  <defs>
    <clipPath id="clip0_4059_1054">
      <rect width="24" height="24" fill="white" />
    </clipPath>
  </defs>
  </symbol>

     <symbol id="icon-exit">
     <path d="M17 7L15.59 8.41L18.17 11H8V13H18.17L15.59 15.58L17 17L22 12L17 7ZM4 5H12V3H4C2.9 3 2 3.9 2 5V19C2 20.1 2.9 21 4 21H12V19H4V5Z" fill="inherit" />
  </symbol>

    <symbol id="spray" fill="none">
      <path d="M1.50045 62.6901C15.9469 67.6191 23.1601 72.5311 34.4507 84.5903" stroke="inherit" stroke-width="3"
        stroke-linecap="round" />
      <path d="M117 141.501C121 145.501 124.001 147.5 124 159" stroke="inherit" stroke-width="3"
        stroke-linecap="round" />
      <path d="M153.999 106.327C169.253 105.779 181.65 111.762 196.499 119" stroke="inherit" stroke-width="3"
        stroke-linecap="round" />
      <path d="M3.99897 133.501C19.4989 129 28.4992 128.5 41.6775 126.315" stroke="inherit" stroke-width="3"
        stroke-linecap="round" />
      <path d="M48.999 202C60.499 188.5 63.6526 182.228 70.2853 170.632" stroke="inherit" stroke-width="3"
        stroke-linecap="round" />
      <path d="M99.0002 1.50074C99.999 24.5005 100.999 30.5005 104.5 47.0007" stroke="inherit" stroke-width="3"
        stroke-linecap="round" />
      <path d="M166.072 27.5001C148.397 42.2506 144.235 46.6863 133.244 59.4812" stroke="inherit" stroke-width="3"
        stroke-linecap="round" />
      <path d="M61.3285 24.3327C68.6691 36.5645 68.6688 36.5645 71.5251 46.1294" stroke="inherit" stroke-width="3"
        stroke-linecap="round" />
    </symbol>

    <symbol id="spray-2">
      <path d="M14.4672 53.9997C28.9137 58.9286 36.1269 63.8407 47.4175 75.8999" stroke="inherit" stroke-width="3"
        stroke-linecap="round" />
      <path d="M280.468 165.542C290.405 177.127 294.122 185.023 297.719 201.147" stroke="inherit" stroke-width="3"
        stroke-linecap="round" />
      <path d="M1.50013 168.648C13.9595 158.388 22.0294 154.372 33.2712 147.156" stroke="inherit" stroke-width="3"
        stroke-linecap="round" />
      <path d="M96.4673 203.027C107.967 189.527 111.121 183.255 117.754 171.66" stroke="inherit" stroke-width="3"
        stroke-linecap="round" />
      <path d="M223.913 9.99976C224.912 32.9995 225.912 38.9995 229.412 55.4997" stroke="inherit" stroke-width="3"
        stroke-linecap="round" />
      <path d="M121.467 44.2444C130.981 54.8734 130.981 54.8735 135.589 63.7286" stroke="inherit" stroke-width="3"
        stroke-linecap="round" />
      <path d="M205.467 181.244C214.982 191.873 214.981 191.874 219.589 200.729" stroke="inherit" stroke-width="3"
        stroke-linecap="round" />
      <path d="M341.468 104.827C356.722 104.279 369.119 110.262 383.968 117.5" stroke="inherit" stroke-width="3"
        stroke-linecap="round" />
      <path d="M353.54 26.0001C335.865 40.7506 331.703 45.1863 320.712 57.9812" stroke="inherit" stroke-width="3"
        stroke-linecap="round" />
    </symbol>

    <symbol id="semicircle" fill="none">
      <path d="M194.067 1.5C397.091 14.4672 81.6794 100.362 1.5003 37.5228" stroke="inherit" stroke-width="3"
        stroke-linecap="round" />
    </symbol>

    <symbol id="line-1" fill="none">
      <path d="M1.5 6.00195C57 -3.49957 113.5 15.5019 178.5 1.5" stroke="inherit" stroke-width="3"
        stroke-linecap="round" />
    </symbol>

    <symbol id="line-2" fill="none">
      <path d="M175 3.5C83.5 -1.00195 75.5 6.00195 1.49999 1.5" stroke="inherit" stroke-width="3"
        stroke-linecap="round" />
    </symbol>

    <symbol id="arrow-pointer-1">
      <path
        d="M85.7642 92.0459C86.5926 92.0459 87.2642 91.3743 87.2642 90.5459C87.2642 89.7175 86.5926 89.0459 85.7642 89.0459L85.7642 90.5459L85.7642 92.0459ZM63.8248 12.1062C64.4106 11.5204 64.4106 10.5706 63.8248 9.98483L54.2789 0.438885C53.6931 -0.1469 52.7433 -0.1469 52.1576 0.438885C51.5718 1.02468 51.5718 1.97442 52.1576 2.56021L60.6428 11.0455L52.1576 19.5308C51.5718 20.1166 51.5718 21.0663 52.1576 21.6521C52.7433 22.2379 53.6931 22.2379 54.2789 21.6521L63.8248 12.1062ZM85.7642 90.5459L85.7642 89.0459C53.3743 89.046 32.019 84.0869 19.134 76.8177C6.32786 69.5929 2.0033 60.1868 3.18934 50.9876C4.3966 41.624 11.3633 32.0193 22.1302 24.7084C32.8623 17.4213 47.1945 12.5455 62.7642 12.5455V11.0455V9.54549C46.5838 9.54549 31.6661 14.6073 20.445 22.2265C9.25876 29.8221 1.56922 40.0925 0.213971 50.604C-1.16248 61.28 4.0442 71.749 17.6599 79.4305C31.1968 87.0676 53.154 92.046 85.7642 92.0459L85.7642 90.5459Z"
        fill="inherit" />
    </symbol>

    <symbol id="arrow-pointer-2" width="130" height="131" viewBox="0 0 130 131" fill="#7142DE">
      <path
        d="M128.908 10.0443C129.677 10.3513 130.052 11.224 129.745 11.9934C129.438 12.7629 128.566 13.1377 127.796 12.8307L128.352 11.4375L128.908 10.0443ZM21.3425 129.607C21.2494 130.43 20.5066 131.022 19.6834 130.929L6.269 129.411C5.44582 129.318 4.854 128.575 4.94711 127.752C5.04024 126.929 5.78304 126.337 6.60622 126.43L18.5302 127.779L19.8791 115.855C19.9722 115.032 20.715 114.44 21.5382 114.533C22.3613 114.626 22.9532 115.369 22.86 116.192L21.3425 129.607ZM128.352 11.4375L127.796 12.8307C76.3069 -7.71493 37.6985 6.35129 17.927 32.7131C-1.9133 59.1669 -3.04907 98.2876 21.0252 128.503L19.8521 129.438L18.6789 130.373C-6.24683 99.0884 -5.1326 58.4593 15.5271 30.9132C36.2556 3.27505 76.3972 -10.9089 128.908 10.0443L128.352 11.4375Z"
        fill="inherit" />
    </symbol>

    <symbol id="arrow-pointer-3" width="234" height="122" viewBox="0 0 234 122" fill="#7142DE">
      <path
        d="M-1.78814e-07 1.49981C-1.78814e-07 0.67138 0.671573 -0.000189725 1.5 -0.000189725C2.32843 -0.000189725 3 0.67138 3 1.49981H1.5H-1.78814e-07ZM233.231 104.689C233.955 105.093 234.214 106.006 233.81 106.73L227.229 118.517C226.825 119.241 225.912 119.5 225.188 119.096C224.465 118.692 224.206 117.778 224.61 117.055L230.459 106.577L219.981 100.728C219.258 100.324 218.999 99.4103 219.403 98.6869C219.806 97.9636 220.72 97.7046 221.444 98.1084L233.231 104.689ZM1.5 1.49981H3C3 37.008 20.3782 74.0047 57.5892 96.5285C94.8098 119.058 152.097 127.233 232.091 104.555L232.5 105.999L232.909 107.442C152.403 130.264 94.1902 122.19 56.0358 99.0949C17.8718 75.9943 -1.78814e-07 37.9916 -1.78814e-07 1.49981H1.5Z"
        fill="inherit" />
    </symbol>

    <symbol id="arrow-pointer-4" width="292" height="99" viewBox="0 0 292 99" fill="#7142DE">
      <path
        d="M0.142368 21.6563C-0.20974 20.9064 0.112714 20.0131 0.862588 19.661C1.61246 19.3089 2.5058 19.6314 2.8579 20.3812L1.50014 21.0188L0.142368 21.6563ZM287.104 51.7954C286.829 52.5768 285.973 52.9871 285.191 52.7118L272.458 48.2263C271.677 47.951 271.267 47.0945 271.542 46.3131C271.817 45.5317 272.674 45.1215 273.455 45.3967L284.773 49.3839L288.76 38.0656C289.036 37.2842 289.892 36.874 290.674 37.1492C291.455 37.4245 291.865 38.281 291.59 39.0624L287.104 51.7954ZM1.50014 21.0188L2.8579 20.3812C29.619 77.3735 55.0575 95.8437 79.0775 95.4533C91.1785 95.2566 103.188 90.2909 115.169 82.5893C127.149 74.8892 138.976 64.5369 150.712 53.7217C162.412 42.9394 174.045 31.673 185.511 22.3034C196.973 12.9369 208.43 5.32631 219.861 1.92523C231.376 -1.50129 242.852 -0.646617 254.157 6.86033C265.377 14.3108 276.305 28.2313 287.042 50.649L285.69 51.297L284.337 51.945C273.7 29.7377 263.065 16.3769 252.497 9.35951C242.014 2.39856 231.477 1.5987 220.716 4.80064C209.87 8.02802 198.787 15.3288 187.409 24.6264C176.035 33.9208 164.526 45.0712 152.745 55.9277C141 66.7514 129.008 77.2602 116.791 85.113C104.577 92.9643 92.0129 98.2434 79.1263 98.4529C53.1711 98.8748 26.976 78.8032 0.142368 21.6563L1.50014 21.0188Z"
        fill="inherit" />
    </symbol>

    <symbol id="arrow-pointer-5" width="136" height="80" viewBox="0 0 136 80" fill="#7142DE">
      <path
        d="M133.809 1.44147C134.626 1.58126 135.174 2.35653 135.035 3.17308C134.895 3.98962 134.12 4.53824 133.303 4.39845L133.556 2.91996L133.809 1.44147ZM16.2911 78.3151C16.1532 79.132 15.3792 79.6824 14.5623 79.5445L1.25067 77.2973C0.433807 77.1594 -0.116608 76.3854 0.0212854 75.5685C0.159194 74.7516 0.933181 74.2012 1.75006 74.3391L13.5826 76.3367L15.5802 64.5041C15.7181 63.6872 16.4921 63.1368 17.3089 63.2747C18.1258 63.4126 18.6762 64.1866 18.5383 65.0035L16.2911 78.3151ZM133.556 2.91996L133.303 4.39845C105.935 -0.286912 68.5858 7.1583 42.0807 21.3769C28.8257 28.4876 18.4803 37.1883 13.3836 46.7118C10.8472 51.4511 9.61829 56.3772 9.94726 61.4298C10.2762 66.4824 12.1696 71.7614 16.0344 77.1961L14.812 78.0654L13.5896 78.9347C9.45438 73.1198 7.32417 67.3163 6.9536 61.6247C6.58302 55.9331 7.97862 50.4534 10.7386 45.2962C16.2345 35.0267 27.1689 25.9719 40.6625 18.7333C67.6544 4.25351 105.677 -3.37469 133.809 1.44147L133.556 2.91996Z"
        fill="inherit" />
    </symbol>

    <symbol id="review-decoration">

      <path
        d="M43.8192 54.2461C29.8442 56.3961 16.0484 48.7008 11.5692 43.7737C16.186 32.7645 -12.3171 6.025 6.49543 6.02397C10.8454 6.02397 14.5608 -5.37125 30.3817 3.18362C30.4387 6.642 30.3817 18.6131 30.3817 20.6513C30.3817 48.87 46.5067 52.6248 43.8192 54.2461Z"
        fill="inherit" />

    </symbol>

  </svg>