<svg width="89" height="190" viewBox="0 0 89 190" fill="none" xmlns="http://www.w3.org/2000/svg">
<path d="M50.1836 6C50.1836 2.68629 47.4973 0 44.1836 0C40.8699 0 38.1836 2.68629 38.1836 6L44.1836 6L50.1836 6ZM39.941 187.254C42.2841 189.597 46.0831 189.597 48.4262 187.254L86.61 149.07C88.9531 146.727 88.9531 142.928 86.61 140.585C84.2669 138.242 80.4679 138.242 78.1247 140.585L44.1836 174.526L10.2425 140.585C7.89932 138.242 4.10033 138.242 1.75719 140.585C-0.58596 142.928 -0.58596 146.727 1.75719 149.07L39.941 187.254ZM44.1836 6L38.1836 6L38.1836 183.011H44.1836H50.1836L50.1836 6L44.1836 6Z" fill="black"/>
</svg>
