<svg width="411" height="104" viewBox="0 0 411 104" fill="none" xmlns="http://www.w3.org/2000/svg">
<path d="M7 44.5479C3.13401 44.5479 -3.37976e-07 47.6819 0 51.5479C3.37976e-07 55.4138 3.13401 58.5479 7 58.5479L7 51.5479L7 44.5479ZM408.95 56.4976C411.683 53.7639 411.683 49.3317 408.95 46.5981L364.402 2.05035C361.668 -0.683323 357.236 -0.683323 354.503 2.05035C351.769 4.78402 351.769 9.21617 354.503 11.9498L394.1 51.5478L354.503 91.1458C351.769 93.8795 351.769 98.3116 354.503 101.045C357.236 103.779 361.668 103.779 364.402 101.045L408.95 56.4976ZM7 51.5479L7 58.5479L404 58.5478L404 51.5478L404 44.5478L7 44.5479L7 51.5479Z" fill="#191817"/>
</svg>
