<svg width="691" height="691" viewBox="0 0 691 691" fill="none" xmlns="http://www.w3.org/2000/svg">
<path d="M395.119 2.36758C408.816 -0.256758 411.717 7.91318 420.918 17.2231L476.355 73.7383C483.905 81.5438 491.411 89.4143 499.188 96.9962L513.113 110.731C520.156 117.555 530.628 126.681 532.264 136.985C531.983 139.732 531.786 141.002 531.14 143.68C530.766 149.103 530.134 154.99 530.106 160.394L529.316 355.349C529.318 359.457 528.596 393.522 529.312 394.051C569.111 394.846 594.131 413.933 618.076 442.833C633.47 467.554 639.243 495.572 633.779 524.491C633.659 525.127 633.56 525.421 633.293 525.977C629.077 546.651 612.339 579.144 593.286 590.318C577.786 605.778 543.997 614.24 522.961 613.402C524.382 615.167 529.424 620.952 530.133 622.62C530.79 624.164 532.993 638.016 532.264 639.674C530.28 648.075 523.567 668.284 513.854 670.893C503.655 680.148 468.504 682.858 454.632 680.209C447.749 680.466 439.454 680.225 432.443 680.223L155.519 680.242C135.249 680.282 122.003 679.004 108.544 660.776C104.506 655.309 97.2212 630.33 103.613 648.763C106.437 656.91 111.616 662.942 118.113 668.262C118.06 667.441 116.286 665.817 115.601 665.265C99.2872 652.139 101.81 632.357 101.999 613.676C102.084 605.309 100.786 588.397 105.06 581.115C115.676 588.121 100.035 644.192 120.078 665.416C119.141 662.867 116.816 660.468 115.502 657.96C106.779 640.682 110.207 616.742 109.608 597.717C109.546 595.748 109.197 592.061 109.707 590.318C108.841 586.652 107.448 583.491 106.706 579.756C103.535 574.138 104.328 542.201 104.252 534.644L102.724 49.2253C102.612 35.3438 106.01 26.9762 115.677 16.6038C130.257 0.960656 150.435 2.35003 169.798 2.37188L395.119 2.36758Z" fill="url(#paint0_linear_206_4226)"/>
<path d="M525.795 394.051C526.95 394.007 528.177 393.915 529.313 394.051C569.112 394.846 594.132 413.932 618.077 442.833C633.471 467.554 639.244 495.572 633.78 524.491C633.66 525.127 633.561 525.421 633.294 525.977C629.078 546.65 612.34 579.143 593.287 590.318C577.787 605.778 543.998 614.24 522.962 613.402C511.72 610.118 492.941 610.46 483.023 603.196C481.694 602.177 475.534 598.702 473.492 597.423C472.892 596.795 467.887 593.391 466.791 592.629C455.371 584.658 435.588 562.043 433.054 547.432C429.429 539.796 426.541 529.78 426.279 521.357L426.77 519.101C422.511 500.523 436.841 462.507 447.211 447.417C449.801 443.087 457.525 436.49 457.437 433.179C457.86 431.665 462.435 427.948 463.965 426.986C466.482 426.113 469.6 422.296 471.478 420.224C473.187 419.441 475.799 417.872 477.513 416.906C470.288 406.281 496.241 402.224 502.626 397.752C504.93 396.769 507.644 397.119 509.447 395.723C512.021 395.371 513.867 395.15 516.267 394.051C518.334 393.87 523.255 394.103 525.795 394.051Z" fill="#6B33C9"/>
<path d="M525.795 394.051C526.95 394.007 528.177 393.915 529.313 394.051C569.112 394.846 594.132 413.932 618.077 442.833C618.196 445.316 619.563 446.27 619.676 448.266C614.236 448.09 617.209 446.678 613.527 445.127L618.077 451.504C616.127 453.267 616.174 454.275 615.545 456.881C611.871 450.62 608.542 444.869 603.439 439.613C599.885 434.846 596.626 432.184 592.12 428.373C587.877 426.357 578.821 421.462 574.563 419.041C544.535 401.973 490.678 410.867 464.467 431.241C462.742 432.585 459.642 433.65 457.965 435.198C455.659 437.667 449.791 446.046 447.211 447.417C449.801 443.087 457.525 436.49 457.437 433.179C457.859 431.665 462.435 427.948 463.965 426.986C466.482 426.113 469.6 422.296 471.478 420.224C473.187 419.441 475.798 417.872 477.512 416.906C470.288 406.281 496.241 402.224 502.626 397.752C504.93 396.769 507.644 397.119 509.447 395.723C512.021 395.371 513.867 395.15 516.266 394.051C518.334 393.87 523.255 394.103 525.795 394.051Z" fill="url(#paint1_linear_206_4226)"/>
<path d="M603.438 439.613L603.954 439.337C605.748 440.074 605.352 441.428 606.978 442.059C610.143 440.69 606.923 438.148 605.568 436.657L605.731 436.11C608.543 439.048 611.093 441.837 613.527 445.127L618.076 451.504C616.126 453.267 616.173 454.275 615.544 456.881C611.871 450.62 608.541 444.869 603.438 439.613Z" fill="url(#paint2_linear_206_4226)"/>
<path d="M592.12 428.373L592.277 427.757L593.155 428.566C594.034 428.032 593.827 427.989 594.342 426.869L593.987 425.965C595.215 426.327 604.901 434.794 605.732 436.11L605.569 436.656C606.924 438.148 610.144 440.689 606.979 442.059C605.353 441.427 605.748 440.074 603.955 439.337L603.439 439.612C599.886 434.845 596.626 432.184 592.12 428.373Z" fill="#8782E4"/>
<path d="M433.052 547.431C432.469 545.362 430.763 541.131 431.344 539.659L431.77 539.6C432.639 540.606 433.903 544.361 434.523 545.898L435.077 546.202C441.448 560.425 450.784 571.723 461.702 582.594C463.304 582.834 464.238 581.296 465.149 581.686C473.951 585.457 481.084 592.658 489.903 596.491C508.775 604.691 540.129 607.627 559.283 597.853C562.24 596.344 576.451 590.809 578.165 592.545C579.911 594.311 579.247 594.926 582.037 596.401L581.874 597.262C585.053 596.124 590.158 591.152 593.127 589.802L593.286 590.318C577.786 605.778 543.997 614.24 522.961 613.402C511.718 610.118 492.94 610.46 483.022 603.196C481.692 602.177 475.533 598.702 473.491 597.422C472.89 596.795 467.886 593.391 466.79 592.628C455.37 584.658 435.587 562.042 433.052 547.431Z" fill="#58348B"/>
<path d="M618.076 442.833C633.47 467.554 639.243 495.572 633.779 524.491C633.658 525.127 633.56 525.421 633.293 525.977C632.889 525.271 637.721 492.13 631.148 511.949C629.768 516.115 626.561 517.893 625.982 522.406C626.002 518.481 627.333 514.65 628.199 510.682C631.197 493.549 621.424 472.557 615.544 456.881C616.173 454.275 616.126 453.267 618.076 451.504L613.526 445.127C617.208 446.678 614.235 448.09 619.675 448.267C619.562 446.27 618.195 445.316 618.076 442.833Z" fill="#FEFEFE"/>
<path d="M618.076 442.833C633.47 467.554 639.243 495.572 633.779 524.491C633.658 525.127 633.56 525.421 633.293 525.977C632.889 525.271 637.721 492.13 631.148 511.949C629.768 516.115 626.561 517.893 625.982 522.406C626.002 518.481 627.333 514.65 628.199 510.682C628.21 511.806 628.068 512.524 628.738 513.391L629.241 513.342C639.159 500.483 626.901 463.338 618.076 451.504L613.526 445.127C617.208 446.678 614.235 448.09 619.675 448.267C619.562 446.27 618.195 445.316 618.076 442.833Z" fill="#8469CB"/>
<path d="M426.769 519.101C428.596 527.038 434.146 540.19 435.077 546.202L434.523 545.898C433.903 544.361 432.639 540.607 431.77 539.6L431.344 539.659C430.763 541.132 432.469 545.363 433.052 547.432C429.427 539.796 426.539 529.78 426.277 521.357L426.769 519.101Z" fill="#8440CE"/>
<path d="M492.571 502.614L493.082 502.323C494.752 503.551 498.166 507.623 499.571 507.639C500.171 504.559 511.016 503.658 513.364 500.865C516.247 497.437 520.237 491.58 522.971 488.438C524.793 486.344 531.256 482.697 533.903 480.262C539.567 475.05 554.537 458.305 561.074 455.535C559.51 456.662 554.842 460.001 554.379 461.67C557.028 459.983 561.135 459.118 564.263 459.354C569.291 462.665 577.615 446.267 586.142 452.76C591.635 454.023 593.881 455.128 597.688 459.426L598.06 459.152L598.418 459.633C599.197 460.671 599.611 461.264 601.112 461.187C610.574 460.708 614.702 483.458 612.629 489.29C608.543 500.788 592.315 509.701 583.899 518.304C577.958 524.887 572.302 531.823 565.223 537.263C552.5 547.04 532.542 560.359 517.9 564.742C515.947 565.328 511.086 565.966 509.65 566.782L509.965 566.784C511.349 566.809 511.494 566.85 512.788 567.166L514.37 567.546C511.653 568.338 487.619 566.44 485.04 565.656C487.131 565.721 489.444 566.041 491.598 566.174L491.613 565.976C483.941 560.649 479.23 559.874 470.742 551.528C464.988 545.868 453.548 539.845 448.418 534.175C439.497 524.316 443.778 503.188 452.664 501.161C456.535 500.277 457.925 504.933 460.427 500.181L460.898 500.103L461.106 500.296C463.315 497.923 464.34 496.733 467.272 495.163C476.879 488.816 485.51 496.522 492.571 502.614Z" fill="#CACAC9"/>
<path d="M597.688 459.424L598.06 459.15L598.418 459.632C599.197 460.67 599.611 461.263 601.112 461.186C610.574 460.706 614.702 483.457 612.629 489.289C608.543 500.787 592.315 509.7 583.899 518.302C577.958 524.886 572.302 531.821 565.223 537.262C552.5 547.038 532.542 560.358 517.9 564.741C515.947 565.327 511.086 565.965 509.65 566.78L509.965 566.783C511.349 566.807 511.494 566.849 512.788 567.165L514.37 567.544C511.653 568.337 487.619 566.439 485.04 565.655C487.131 565.72 489.444 566.039 491.598 566.173L491.613 565.975C483.941 560.648 479.23 559.873 470.742 551.527C464.988 545.867 453.548 539.844 448.418 534.174C439.497 524.315 443.778 503.187 452.664 501.16C456.535 500.276 457.925 504.932 460.427 500.18L460.898 500.102L461.106 500.295C456.531 507.116 455.103 514.739 461.106 521.357C464.774 526.783 492.966 551.416 499.612 556.702C507.741 563.165 516.07 559.741 522.604 553.495C547.013 530.16 571.538 506.909 595.168 482.786C602.579 475.222 602.846 468.463 597.688 459.424Z" fill="#530DA7"/>
<path d="M492.571 502.614L493.083 502.323C494.752 503.551 498.167 507.623 499.572 507.639C500.171 504.559 511.016 503.658 513.365 500.865C516.248 497.437 520.237 491.58 522.971 488.438C524.793 486.344 531.256 482.697 533.903 480.262C539.567 475.05 554.537 458.305 561.075 455.535C559.511 456.662 554.842 460.001 554.379 461.67C557.029 459.983 561.135 459.118 564.264 459.354C569.291 462.665 577.616 446.267 586.142 452.76C580.923 452.22 575.798 453.216 571.838 456.756C556.416 470.538 540.136 487.255 525.232 501.887C520.076 506.947 514.864 513.29 509.445 517.957C504.326 513.807 497.384 507.231 492.571 502.614Z" fill="#530DA7"/>
<path d="M467.272 495.162L467.372 495.672C454.381 505.33 462.839 507.889 458.17 512.792C457.425 516.718 459.642 517.69 461.558 521.291L461.106 521.357C455.103 514.74 456.531 507.116 461.106 500.295C463.315 497.922 464.34 496.732 467.272 495.162Z" fill="#DCDEDF"/>
<path d="M118.113 668.262C118.06 667.44 116.286 665.817 115.601 665.265C99.2872 652.138 101.81 632.357 101.999 613.676C102.084 605.308 100.786 588.396 105.06 581.115C115.676 588.121 100.035 644.192 120.078 665.416C119.141 662.866 116.816 660.468 115.502 657.959C106.779 640.682 110.207 616.742 109.608 597.717C109.546 595.748 109.197 592.061 109.707 590.318C119.306 601.743 118.27 599.968 130.894 607.016C134.419 607.564 140.514 607.928 144.014 607.689H164.466H459.941C464.512 607.398 468.915 607.172 473.491 607.016C477.39 606.396 479.587 604.98 483.022 603.196C492.94 610.46 511.719 610.118 522.961 613.402C524.382 615.167 529.424 620.952 530.133 622.62C530.79 624.164 532.993 638.016 532.264 639.673C530.28 648.075 523.567 668.284 513.854 670.893C503.655 680.148 468.504 682.858 454.632 680.209C447.749 680.465 439.454 680.225 432.443 680.222L155.519 680.241C135.249 680.282 122.003 679.004 108.544 660.776C104.506 655.309 97.2212 630.33 103.613 648.763C106.437 656.909 111.616 662.942 118.113 668.262Z" fill="url(#paint3_linear_206_4226)"/>
<path d="M118.114 668.262C118.061 667.44 116.287 665.817 115.602 665.265C99.2878 652.138 101.811 632.357 102 613.676C102.085 605.308 100.786 588.396 105.061 581.115C115.677 588.121 100.036 644.192 120.078 665.416C119.142 662.866 116.817 660.468 115.503 657.959C106.78 640.682 110.208 616.742 109.609 597.717C109.547 595.748 109.197 592.061 109.708 590.318C119.306 601.743 118.27 599.968 130.895 607.016C134.419 607.564 140.515 607.928 144.014 607.689C147.36 608.538 157.408 608.739 148.052 608.708C149.415 613.101 224.485 648.337 232.929 653.558C238.475 656.986 247.11 659.104 249.774 665.756C250.929 669.735 230.169 673.655 226.93 673.667C195.996 673.784 169.777 673.962 138.898 671.171L138.853 671.414L139.229 671.461C143.032 671.978 143.914 673.284 146.662 673.964L145.568 674.102C143.932 673.168 142.642 672.781 140.92 673.867L142.002 674.276C135.066 674.896 122.386 674.044 118.114 668.262Z" fill="#DCDEDF"/>
<path d="M459.941 607.688C464.512 607.397 468.914 607.171 473.491 607.015C469.982 608.534 406.033 607.652 392.862 608.853C387.167 609.509 394.567 608.676 396.778 608.934C406.592 610.077 416.45 609.691 426.331 609.668L457.52 609.691C458.926 609.68 463.525 609.103 464.359 609.874C462.014 611.069 437.729 610.494 433.684 610.534L392.991 611.104C388.125 611.177 383.079 611.601 378.284 611.617L219.002 610.997C200.839 610.888 182.296 611.864 164.465 607.688H459.941Z" fill="#6C668A"/>
<path d="M522.962 613.401C524.383 615.167 529.425 620.951 530.134 622.619C530.791 624.163 532.994 638.016 532.265 639.673C530.281 648.074 523.568 668.283 513.855 670.892L513.453 670.474C515.507 668.733 523.986 661.609 524.271 659.437L523.758 659.311L523.073 660.064C521.764 661.515 521.724 661.609 520.016 662.711L519.641 662.947C518.95 663.615 519.01 663.583 518.083 663.836C512.569 661.464 519.079 653.389 520.349 650.123C525.684 636.396 520.461 621.803 522.962 613.401Z" fill="#FEFEFE"/>
<path d="M519.641 662.947C519.858 661.588 524.478 657.619 525.953 655.714C529.203 651.518 530.01 642.963 532.265 639.673C530.281 648.074 523.568 668.283 513.855 670.892L513.453 670.474C515.507 668.733 523.986 661.609 524.271 659.437L523.758 659.311L523.073 660.064C521.764 661.515 521.724 661.609 520.016 662.711L519.641 662.947Z" fill="#DCDEDF"/>
<path d="M454.632 680.208C447.749 680.464 439.454 680.224 432.443 680.222L155.519 680.24C135.249 680.281 122.003 679.003 108.544 660.775C104.506 655.308 97.2212 630.329 103.613 648.762C106.437 656.908 111.616 662.941 118.113 668.261C122.385 674.043 135.066 674.895 142.001 674.275L140.919 673.866C142.641 672.78 143.931 673.167 145.567 674.101L146.662 673.963L147.029 674.171L145.788 674.839L146.128 674.835C143.941 675.883 134.601 677.499 131.684 676.888L131.655 677.096C139.301 681.373 168.616 679.435 177.811 679.437L426.21 680.172C432.776 680.128 448.739 678.841 454.632 680.208Z" fill="#BABFCA"/>
<path d="M342.332 439.612C341.249 439.292 340.767 439.346 339.707 439.158L339.778 438.669L339.993 439.257L340.147 438.654C350.35 438.744 350.887 439.098 358.114 446.182C358.98 447.247 363.376 448.722 364.054 449.479C371.092 457.376 381.901 458.107 391.804 458.133C403.184 458.161 402.864 455.087 411.442 446.372C413.364 444.421 429.981 432.892 433.656 430.945C460.877 416.513 476.911 399.368 509.446 395.723C507.643 397.118 504.928 396.769 502.625 397.751C496.24 402.224 470.287 406.281 477.511 416.905C475.797 417.871 473.186 419.441 471.477 420.223C469.598 422.295 466.481 426.112 463.964 426.985C462.433 427.947 457.858 431.664 457.436 433.178C457.523 436.489 449.8 443.086 447.21 447.417C436.839 462.507 422.509 500.523 426.769 519.1L426.277 521.356C426.539 529.779 429.427 539.795 433.052 547.431C435.587 562.042 455.369 584.657 466.79 592.628C467.886 593.39 472.89 596.794 473.491 597.422C475.533 598.701 481.692 602.176 483.022 603.195C479.587 604.98 477.39 606.395 473.491 607.015C468.914 607.171 464.512 607.397 459.941 607.688H164.465H144.013C140.514 607.927 134.418 607.563 130.894 607.015C118.269 599.967 119.305 601.742 109.707 590.317C108.841 586.651 107.448 583.49 106.706 579.755C108.526 580.649 106.661 584.521 110.359 581.299C110.384 579.89 109.655 580.307 109.707 578.261C112.228 583.672 114.419 586.646 118.112 591.309C120.5 595.109 123.912 595.253 127.754 596.636C129.851 597.391 128.906 601.229 130.76 603.332L131.228 603.26C131.336 602.221 130.284 598.894 129.828 597.859C131.085 597.592 158.855 598.896 163.888 598.875L285.093 598.865C304.626 598.869 329.338 597.879 348.536 598.986L347.862 599.118C353.872 599.865 380.826 599.867 385.603 595.794L385.921 595.518L386.638 595.839C386.188 582.639 377.334 571.184 373.697 556.869C368.557 536.635 368.743 515.451 366.535 494.945C365.095 493.403 365.834 481.285 355.608 477.401C353.958 476.775 352.522 475.039 351.57 474.923C342.34 479.867 322.66 478.616 312.671 478.622C288.79 478.639 264.975 477.938 241.11 477.78C233.141 477.728 223.92 479.667 216.163 477.768C217.972 477.544 222.589 477.711 224.588 477.724L325.993 477.788C334.845 477.796 344.755 478.42 352.122 472.663C350.282 473.335 347.553 474.588 345.729 474.286C351.4 468.723 354.991 462.894 356.98 455.096C357.532 452.961 357.975 450.819 358.523 448.676C354.809 441.238 350.167 439.754 342.332 439.612Z" fill="#6B33C9"/>
<path d="M433.052 547.431L432.676 548.022C433.779 553.055 436.396 557.434 438.906 561.791L438.725 562.359L438.472 562.347C435.397 559.53 432.715 554.509 430.499 550.837L431.246 552.862C428.711 549.564 427.406 545.234 425.907 541.326C410.807 501.957 422.166 460.795 448.595 429.797C455.787 421.362 457.208 419.573 467.485 413.17C468.032 412.657 501.17 398.288 502.624 397.751C496.239 402.224 470.286 406.28 477.51 416.905C475.796 417.871 473.185 419.441 471.476 420.223C469.598 422.295 466.48 426.112 463.963 426.985C462.433 427.947 457.857 431.664 457.435 433.178C457.523 436.489 449.799 443.086 447.209 447.417C436.839 462.507 422.508 500.522 426.768 519.1L426.277 521.356C426.538 529.779 429.426 539.795 433.052 547.431Z" fill="url(#paint4_linear_206_4226)"/>
<path d="M457.438 433.179C457.525 436.489 449.801 443.086 447.212 447.417C436.841 462.507 422.511 500.523 426.77 519.1L426.279 521.357C423.637 486.772 429.112 457.159 457.438 433.179Z" fill="#FEFEFE"/>
<path d="M463.964 426.985C464.914 422.388 466.878 420.87 471.478 420.224C469.599 422.295 466.481 426.112 463.964 426.985Z" fill="#8440CE"/>
<path d="M473.491 597.422C475.533 598.701 481.693 602.177 483.022 603.196C479.588 604.98 477.391 606.395 473.491 607.015C468.915 607.171 464.513 607.397 459.941 607.688C464.279 605.161 462.763 608.463 468.773 602.644L467.996 601.932L468.75 602.725L467.97 602.042C472.752 597.489 475.987 604.803 473.491 597.422Z" fill="#530DA7"/>
<path d="M358.525 448.677C361.553 456.241 358.251 467.211 352.124 472.663C350.284 473.335 347.555 474.589 345.73 474.287C351.402 468.724 354.993 462.895 356.982 455.097C357.534 452.962 357.977 450.82 358.525 448.677Z" fill="url(#paint5_linear_206_4226)"/>
<path d="M109.707 578.262C112.228 583.672 114.419 586.647 118.112 591.31L117.056 590.447C105.861 596.133 130.237 603.873 130.894 607.015C118.269 599.967 119.305 601.742 109.707 590.318C108.841 586.651 107.448 583.49 106.706 579.756C108.526 580.649 106.661 584.521 110.359 581.3C110.384 579.891 109.655 580.308 109.707 578.262Z" fill="#8469CB"/>
<path d="M106.707 579.756C103.536 574.137 104.329 542.2 104.253 534.644L102.725 49.2247C102.613 35.3432 106.011 26.9756 115.678 16.6032C130.258 0.96004 150.436 2.34942 169.799 2.37127L395.12 2.36696C396.348 4.9843 396.891 9.74951 398.118 13.2013C392.383 14.4052 376.315 13.2014 369.799 13.1874L170.287 13.1896C147.036 13.1759 135.515 9.71312 120.358 27.7831C116.46 37.3154 118.114 61.2595 118.115 72.1392L118.106 546.381C118.099 560.203 117.79 573.696 119.405 587.445C119.63 589.364 120.94 593.673 118.114 591.31C114.421 586.647 112.23 583.672 109.708 578.262C109.657 580.308 110.386 579.891 110.361 581.3C106.663 584.521 108.527 580.649 106.707 579.756Z" fill="#FEFEFE"/>
<path d="M106.707 579.756C103.536 574.137 104.329 542.2 104.253 534.644L102.725 49.2247C102.613 35.3432 106.011 26.9756 115.678 16.6032C130.258 0.96004 150.436 2.34942 169.799 2.37127L395.12 2.36696C396.348 4.9843 396.891 9.74951 398.118 13.2013C392.383 14.4052 376.315 13.2014 369.799 13.1874L170.287 13.1896C147.036 13.1759 135.515 9.71312 120.358 27.7831C119.851 13.0457 108.371 29.9669 106.942 36.1173C104.244 47.7356 105.27 82.1793 105.596 95.9069L106.547 139.694L108.802 562.687C108.816 566.605 110.167 575.278 109.708 578.262C109.657 580.308 110.386 579.891 110.361 581.3C106.663 584.521 108.527 580.649 106.707 579.756Z" fill="url(#paint6_linear_206_4226)"/>
<path d="M395.119 2.36758C408.816 -0.256758 411.716 7.91318 420.918 17.2231L476.354 73.7383C483.904 81.5438 491.411 89.4143 499.187 96.9962L513.112 110.731C520.156 117.555 530.628 126.681 532.263 136.985C530.619 136.599 529.294 136.008 527.417 135.596C525.441 134.195 519.708 133.214 517.264 133.039C492.745 129.778 464.211 133.619 438.696 131.331C432.896 130.811 421.037 125.617 416.884 121.483C414.797 121.872 413.813 121.764 411.727 121.483C410.708 120.573 409.836 119.515 408.931 118.486C408.2 117.72 407.754 117.086 407.115 116.249L405.219 111.866C401.963 101.007 398.807 98.5096 398.116 85.7242C398.4 61.9705 397.494 36.7026 398.116 13.2019C396.889 9.75013 396.347 4.98492 395.119 2.36758Z" fill="#949BAA"/>
<path d="M395.119 2.36621C401.645 15.8568 401.483 28.4686 401.471 42.9625L401.451 70.793C401.448 82.9338 400.919 93.2469 405.013 104.803C405.938 107.416 408.11 111.356 405.219 111.865C401.963 101.006 398.807 98.5082 398.116 85.7228C398.4 61.9691 397.494 36.7012 398.116 13.2006C396.889 9.74876 396.347 4.98355 395.119 2.36621Z" fill="#FEFEFE"/>
<path d="M408.932 118.485H411.728C413.639 119.826 415.219 120.296 416.885 121.482C414.798 121.871 413.815 121.763 411.728 121.482C410.709 120.571 409.837 119.514 408.932 118.485Z" fill="#40342B"/>
<path d="M407.116 116.249C408.458 111.672 410.415 116.186 411.728 118.486H408.931C408.201 117.719 407.755 117.086 407.116 116.249Z" fill="#867466"/>
<path d="M410.512 22.8281C416.137 24.4371 421.259 30.2592 425.434 34.4319C426.798 36.0407 428.235 37.8008 429.638 39.356C434.888 45.0777 441.094 51.0057 446.033 56.5252C446.93 57.237 452.669 62.6081 453.225 63.4012C455.033 65.1337 456.793 66.9559 458.549 68.7449C460.665 70.4869 480.691 90.9258 481.642 92.997C487.298 99.4321 493.929 105.629 499.886 111.865C502.16 113.591 505.538 117.374 503.782 120.366C497.721 126.669 439.027 124.052 435.078 121.482C430.399 119.919 428.055 118.866 423.948 116.248C422.877 115.939 420.815 114.357 419.844 113.645C417.214 113.888 414.889 110.195 413.855 108.159C409.836 98.5389 408.148 92.2843 408.512 82.0197C409.097 84.295 408.528 90.211 409.747 91.9932L410.512 80.9762C410.96 61.9969 409.904 41.6456 410.512 22.8281Z" fill="#6C668A"/>
<path d="M436.565 120.366C458.75 120.779 481.69 119.85 503.783 120.366C497.722 126.669 439.028 124.051 435.079 121.482C434.897 119.883 435.185 120.916 436.565 120.366Z" fill="#585B6D"/>
<path d="M410.512 80.9766C410.356 92.5713 410.369 99.1742 416.885 109.45C415.733 109.077 414.953 108.681 413.855 108.159C409.836 98.5393 408.148 92.2847 408.512 82.0201C409.097 84.2954 408.528 90.2114 409.747 91.9936L410.512 80.9766Z" fill="#C5CBDA"/>
<path d="M499.885 111.865C497.492 111.796 483.269 96.3661 480.714 93.6307L480.812 93.1843L481.641 92.9971C487.297 99.4321 493.928 105.629 499.885 111.865Z" fill="#2B273D"/>
<path d="M429.638 39.3564C434.888 45.0781 441.095 51.0061 446.033 56.5256C444.622 56.0371 431.147 42.6124 428.597 40.3731L429.638 39.3564Z" fill="#2B273D"/>
<path d="M423.947 116.248C424.399 116.081 434.775 119.96 436.563 120.366C435.184 120.917 434.895 119.883 435.077 121.482C430.398 119.919 428.054 118.866 423.947 116.248Z" fill="#2B273D"/>
<path d="M413.857 108.159C414.954 108.681 415.734 109.077 416.887 109.45C417.938 110.521 419.003 112.341 419.845 113.645C417.216 113.888 414.891 110.196 413.857 108.159Z" fill="#BABFCA"/>
<path d="M425.433 34.4326C426.797 36.0414 428.234 37.8015 429.637 39.3567L428.596 40.3733C427.102 39.0325 425.249 36.5403 425.433 34.4326Z" fill="#585B6D"/>
<path d="M453.225 63.4014C455.033 65.1339 456.793 66.9561 458.549 68.7451C456.323 67.9489 454.055 65.5976 453.225 63.4014Z" fill="#2B273D"/>
<path d="M340.886 447.418L341.234 447.073C344.684 446.809 349.03 444.933 350.846 445.127L352.123 448.097C353.008 449.604 355.639 454.726 356.982 455.097C354.992 462.895 351.401 468.724 345.73 474.287C347.555 474.589 350.284 473.336 352.123 472.663C344.757 478.421 334.847 477.797 325.995 477.789L224.589 477.724C222.59 477.712 217.973 477.545 216.165 477.769C209.969 477.433 180.98 479.459 177.74 476.008C176.771 475.41 175.702 474.842 174.701 474.287C175.913 473.658 177.218 473.174 178.489 472.663L176.802 471.586C179.334 465.919 171.927 454.275 182.464 447.418C187.255 446.858 190.627 447.163 195.446 447.418C198.018 448.449 224.28 448.091 228.662 448.094L315.9 448.083C324.146 448.032 332.678 447.384 340.886 447.418Z" fill="url(#paint7_linear_206_4226)"/>
<path d="M345.73 474.287C347.555 474.589 350.284 473.335 352.123 472.663C344.757 478.421 334.847 477.797 325.995 477.789L224.589 477.724C222.59 477.712 217.973 477.545 216.165 477.769C209.969 477.433 180.98 479.458 177.74 476.007C176.771 475.41 175.702 474.841 174.701 474.287C175.913 473.658 177.218 473.173 178.489 472.663C183.43 473.319 189.189 474.922 193.93 475.096C205.407 475.518 221.616 473.903 232.305 475.172C237.655 475.438 245.335 475.177 250.909 475.177L317.798 475.183C328.447 475.21 335.117 475.522 345.73 474.287Z" fill="#191817"/>
<path d="M178.489 472.663C183.43 473.319 189.189 474.922 193.93 475.096C205.407 475.518 221.616 473.903 232.305 475.172C220.718 475.719 208.534 474.79 196.879 475.181C190.553 475.393 183.987 476.207 177.74 476.007C176.771 475.41 175.702 474.841 174.701 474.287C175.913 473.658 177.218 473.173 178.489 472.663Z" fill="#867466"/>
<path d="M340.886 447.418L341.234 447.073C344.684 446.809 349.03 444.933 350.846 445.127L352.123 448.097C348.987 446.835 344.279 447.485 340.886 447.418Z" fill="#CACAC9"/>
<path d="M518.448 135.595H523.464C524.804 135.564 526.076 135.509 527.418 135.595C529.295 136.007 530.621 136.598 532.264 136.984C531.984 139.732 531.787 141.002 531.14 143.679C530.766 149.102 530.135 154.989 530.106 160.393L529.317 355.348C529.318 359.456 528.596 393.522 529.313 394.051C528.176 393.914 526.95 394.006 525.794 394.051C523.254 394.102 518.334 393.87 516.266 394.051C517.764 387.6 517.284 373.614 517.281 366.206L517.265 158.406C518.018 149.918 518.409 144.196 518.448 135.595Z" fill="#FEFEFE"/>
<path d="M528.886 142.636L529.246 143.637C530.165 143.829 530.191 143.78 531.141 143.679C530.767 149.102 530.135 154.989 530.107 160.393L529.317 355.348C529.319 359.456 528.597 393.521 529.313 394.05C528.177 393.914 526.95 394.006 525.795 394.05C526.508 390.852 525.818 365.686 525.927 359.913L526.396 153.871C527.258 150.145 527.961 146.328 528.886 142.636Z" fill="#8782E4"/>
<path d="M523.463 135.595C524.803 135.564 526.076 135.509 527.417 135.595C529.295 136.007 530.62 136.598 532.264 136.984C531.983 139.732 531.786 141.002 531.139 143.679C530.189 143.78 530.164 143.829 529.245 143.637L528.884 142.636C528.737 140.127 528.234 138.663 526.394 136.984C525.176 135.394 525.382 135.771 523.463 135.595Z" fill="#8469CB"/>
<path d="M526.396 136.983C528.235 138.662 528.739 140.127 528.886 142.636C527.962 146.328 527.258 150.145 526.396 153.871C526.941 148.245 525.57 142.389 526.396 136.983Z" fill="#9FAAEA"/>
<path d="M180.434 439.612C182.782 439.997 190.241 439.631 193.042 439.628L342.334 439.612C350.17 439.754 354.811 441.239 358.525 448.676C357.977 450.819 357.535 452.961 356.983 455.096C355.64 454.725 353.009 449.603 352.124 448.096L350.847 445.127C349.031 444.932 344.685 446.808 341.235 447.073L340.887 447.417C332.679 447.383 324.147 448.031 315.901 448.082L228.663 448.093C224.281 448.091 198.019 448.448 195.447 447.417L196.039 447.158C191.855 446.827 190.924 447.279 191.854 442.832C203.888 442.596 183.505 443.911 181.44 441.751C181.185 440.947 181.048 440.229 180.434 439.612Z" fill="#DCDEDF"/>
<path d="M350.847 445.126L351.392 444.143C356.761 444.161 356.802 451.294 356.982 455.096C355.639 454.725 353.009 449.603 352.123 448.096L350.847 445.126Z" fill="#FEFEFE"/>
<path d="M411.728 121.482C413.815 121.764 414.798 121.871 416.885 121.482C421.038 125.617 432.897 130.811 438.697 131.331C464.212 133.619 492.746 129.778 517.265 133.038C515.095 137.82 494.819 134.347 490.393 135.595H483.023C470.752 135.448 448.987 137.161 437.743 135.595C427.683 134.52 418.102 129.329 411.728 121.482Z" fill="url(#paint8_linear_206_4226)"/>
<path d="M169.421 468.212C162.121 458.391 168.508 441.367 180.432 439.612C181.046 440.229 181.184 440.947 181.439 441.751C183.504 443.911 203.887 442.596 191.853 442.832C190.923 447.279 191.854 446.827 196.038 447.158L195.445 447.417C190.627 447.162 187.255 446.857 182.463 447.417C171.927 454.274 179.334 465.919 176.802 471.586L178.489 472.663C177.217 473.173 175.912 473.658 174.7 474.286C171.631 472.321 170.729 471.558 169.421 468.212Z" fill="#FEFEFE"/>
<path d="M169.42 468.213C172.466 467.681 174.462 469.813 176.801 471.587L178.488 472.664C177.217 473.174 175.912 473.658 174.7 474.287C171.631 472.322 170.728 471.558 169.42 468.213Z" fill="#BCA176"/>
<path d="M480.27 136.649C472.253 138.487 462.63 135.682 454.77 137.48C436.217 141.723 410.222 134.944 399.358 118.396L399.718 118.206C410.253 127.801 410.655 131.474 426.357 135.566C431.707 136.959 445.618 140.318 450.14 137.77L449.847 137.913L449.647 137.473C446.388 136.464 440.259 136.775 436.563 136.649L437.742 135.596C448.986 137.161 470.751 135.449 483.022 135.596C480.004 136.707 471.828 135.854 468.013 136.277C472.242 136.685 476.02 136.686 480.27 136.649Z" fill="#6349BA"/>
<path d="M436.564 136.648C434.208 136.277 422.381 133.265 419.959 132.459C418.928 132.129 417.727 128.065 417.45 127.871C404.955 119.15 399.511 102.206 397.496 87.761C396.663 81.7889 398.321 67.5858 397.67 59.0527C397.804 64.0417 397.627 83.8679 398.118 85.7233C398.809 98.5087 401.965 101.006 405.221 111.866L407.117 116.249C407.756 117.086 408.202 117.719 408.933 118.486C409.838 119.514 410.71 120.572 411.729 121.482C418.103 129.329 427.684 134.52 437.744 135.595L436.564 136.648Z" fill="#8440CE"/>
<path d="M518.449 135.595C518.409 144.196 518.018 149.918 517.265 158.406C517.276 151.988 514.038 140.44 516.33 136.091L518.449 135.595Z" fill="#9FAAEA"/>
<path d="M517.266 133.038C519.71 133.213 525.443 134.195 527.419 135.595C526.077 135.509 524.805 135.564 523.464 135.595H518.449C509.495 135.601 499.231 135.865 490.394 135.595C494.82 134.347 515.095 137.819 517.266 133.038Z" fill="#2E0158"/>
<path d="M182.462 361.804L450.408 361.775C451.53 361.774 453.802 362.448 454.631 363.219C465.347 368.522 468.809 380.535 462.084 390.507C467.056 404.215 421.239 401.86 416.675 401.855L259.293 401.15C243.601 401.1 227.959 400.643 212.262 400.834C198.347 402.736 193.97 403.345 180.431 401.516C171.457 399.618 162.955 399.501 155.454 392.915C155.021 388.785 155.034 381.632 157.168 377.857C159.268 374.145 167.847 362.666 172.475 368.178C174.996 364.249 177.894 362.647 182.462 361.804Z" fill="url(#paint9_linear_206_4226)"/>
<path d="M182.462 361.804L450.408 361.775C451.53 361.774 453.802 362.448 454.631 363.219C456.086 366.546 461.505 364.391 456.202 370.845L454.755 369.111L454.631 369.271L195.676 369.287C192.248 369.287 187.359 369.444 184.032 369.271C173.934 370.466 181.291 396.142 176.801 392.915C175.566 392.851 173.611 392.653 172.475 392.915C174.104 394.821 175.628 396.346 177.739 397.752L181.15 399.398C182.019 400.654 182.142 401.193 180.431 401.516C171.457 399.618 162.955 399.501 155.454 392.915C155.021 388.785 155.034 381.632 157.168 377.857C159.268 374.145 167.847 362.666 172.475 368.178C174.996 364.249 177.894 362.647 182.462 361.804Z" fill="url(#paint10_linear_206_4226)"/>
<path d="M155.454 392.915C155.021 388.785 155.034 381.632 157.168 377.857C159.268 374.144 167.847 362.666 172.475 368.178C167.035 374.595 166.542 380.631 169.42 388.36C170.248 390.024 171.071 391.635 172.475 392.915C174.104 394.82 175.628 396.345 177.739 397.752L181.15 399.398C182.019 400.653 182.142 401.193 180.431 401.516C171.457 399.618 162.955 399.501 155.454 392.915Z" fill="#6349BA"/>
<path d="M172.477 368.178C174.998 364.249 177.895 362.647 182.464 361.804C185.76 367.248 196.559 362.716 199.453 364.848L195.639 364.808L195.949 364.767L195.786 365.418L196.261 364.758L195.967 365.615C197.148 366.917 197.351 367.617 197.96 369.271L201.704 368.967C196.686 369.468 187.14 368.722 184.033 369.271C173.936 370.466 181.292 396.142 176.802 392.915C175.567 392.851 173.613 392.653 172.477 392.915C171.073 391.635 170.25 390.024 169.421 388.36C166.544 380.631 167.037 374.595 172.477 368.178Z" fill="#FEFEFE"/>
<path d="M169.42 388.359C172.06 388.538 174.868 391.109 176.801 392.914C175.566 392.851 173.612 392.652 172.475 392.914C171.072 391.635 170.249 390.023 169.42 388.359Z" fill="#CACAC9"/>
<path d="M462.086 390.507C467.058 404.215 421.242 401.86 416.677 401.854L259.295 401.15C243.603 401.1 227.961 400.642 212.264 400.834C198.35 402.736 193.973 403.344 180.434 401.516C182.145 401.193 182.022 400.653 181.153 399.398C185.281 399.507 187.784 399.771 191.854 400.15C192.938 397.56 195.659 397.789 197.961 397.752C204.115 397.405 212.778 397.739 219.169 397.748L432.651 397.745C438.274 397.742 445.775 398.177 451.049 397.752C453.921 397.401 457.645 395.797 459.943 394.051L461.109 392.915L462.086 390.507Z" fill="#191817"/>
<path d="M181.153 399.397C185.281 399.507 187.784 399.77 191.854 400.149C199.321 399.897 205.381 400.923 212.264 400.833C198.35 402.735 193.973 403.344 180.434 401.515C182.145 401.192 182.022 400.653 181.153 399.397Z" fill="#530DA7"/>
<path d="M454.631 363.219C465.347 368.521 468.809 380.534 462.084 390.506L461.107 392.914C459.194 389.871 459.115 377.612 454.631 369.27L454.756 369.11L456.202 370.844C461.505 364.39 456.086 366.546 454.631 363.219Z" fill="#FEFEFE"/>
<path d="M177.74 397.751C180.111 393.797 193.522 396.775 197.96 397.751C195.657 397.789 192.936 397.559 191.853 400.149C187.782 399.77 185.28 399.507 181.152 399.397L177.74 397.751Z" fill="#40342B"/>
<path d="M451.047 397.752C452.782 395.251 456.923 393.562 459.941 394.051C457.642 395.798 453.919 397.401 451.047 397.752Z" fill="#6C668A"/>
<path d="M182.463 286.604C184.629 286.107 202.547 286.218 205.813 286.236L426.797 287.4C435.988 287.384 449.815 285.362 457.436 290.809C463.552 297.306 466.022 302.953 463.964 311.842C463.334 313.741 463.007 314.755 462.084 316.575L461.107 318.069C460.402 318.938 458.946 320.568 458.548 321.491C457.637 324.288 447.871 326.43 444.953 327.266C435.225 326.772 420.831 327.397 410.715 327.4L206.301 326.373C201.364 326.736 182.248 326.771 178.488 323.898L176.801 322.872C172.998 319.942 170.987 318.999 169.42 314.51C162.534 303.724 169.778 288.246 182.463 286.604Z" fill="#BABFCA"/>
<path d="M191.853 318.536L445.141 318.488C449.112 318.453 457.373 315.741 458.159 316.011C459.27 317.17 459.645 317.405 461.108 318.069C460.404 318.938 458.948 320.569 458.549 321.492C457.638 324.288 447.873 326.43 444.955 327.267C435.227 326.773 420.832 327.398 410.717 327.4L206.302 326.373C201.365 326.736 182.249 326.772 178.489 323.898L176.802 322.872C178.626 321.987 180.789 322.25 181.608 321.09L181.076 320.157L181.09 319.652L180.897 319.776C183.904 318.926 188.483 319.667 191.853 318.536Z" fill="#6C668A"/>
<path d="M199.499 323.898H444.955C445.053 325.24 445.171 325.955 444.955 327.267C435.227 326.773 420.832 327.398 410.717 327.401L206.302 326.374C200.766 325.684 188.51 325.938 198.823 324.028L199.499 323.898Z" fill="#191817"/>
<path d="M178.488 323.898C185.028 324.277 192.741 323.789 199.497 323.898L198.821 324.028C188.509 325.937 200.764 325.684 206.301 326.373C201.364 326.736 182.248 326.772 178.488 323.898Z" fill="#2E0158"/>
<path d="M458.55 321.492C457.639 324.289 447.873 326.43 444.955 327.267C445.171 325.955 445.054 325.24 444.955 323.899C450.723 323.926 453.236 324.14 458.55 321.492Z" fill="#2E0158"/>
<path d="M182.463 286.604C184.629 286.107 202.548 286.218 205.814 286.236L426.798 287.4C435.988 287.384 449.815 285.362 457.436 290.809C454.702 291.259 454.022 291.715 453.224 294.449L452.689 294.406C446.938 293.899 435.342 294.463 428.876 294.463L200.082 294.48C195.129 294.479 188.803 294.65 184.033 293.784C180.733 292.812 182.003 292.768 182.031 287.311L182.868 287.005L182.463 286.604Z" fill="#CACAC9"/>
<path d="M169.42 314.509C162.534 303.723 169.778 288.246 182.463 286.604L182.867 287.004L182.031 287.311C182.002 292.767 180.732 292.812 184.032 293.783C178.044 294.256 178.534 301.135 178.488 305.842C178.097 309.455 178.462 314.7 178.488 318.535C176.099 317.661 170.438 314.689 169.42 314.509Z" fill="#FEFEFE"/>
<path d="M453.225 294.449C454.022 291.715 454.702 291.259 457.437 290.81C463.553 297.307 466.023 302.953 463.965 311.842C460.629 311.916 460.722 312.433 458.549 309.761C457.75 303.013 457.106 300.05 453.225 294.449Z" fill="#FEFEFE"/>
<path d="M178.488 305.844L178.541 306.245C180.422 321.623 175.686 318.096 191.852 318.537C188.482 319.668 183.903 318.927 180.896 319.777L181.089 319.653L181.075 320.158L181.607 321.09C180.788 322.251 178.624 321.988 176.801 322.873C172.998 319.943 170.987 319 169.42 314.511C170.438 314.69 176.099 317.662 178.488 318.537C178.462 314.701 178.097 309.457 178.488 305.844Z" fill="url(#paint11_linear_206_4226)"/>
<path d="M458.548 309.762C460.721 312.434 460.628 311.917 463.964 311.843C463.333 313.742 463.007 314.757 462.084 316.576C458.823 312.999 458.272 316.174 458.548 309.762Z" fill="#DCDEDF"/>
<path d="M169.42 238.032C162.366 229.682 170.834 212.778 181.145 211.333C185.356 210.743 191.343 211.122 195.698 211.126L324.698 211.136C352.472 210.81 380.83 211.156 408.659 211.14L435.124 211.128C445.21 211.126 455.155 209.337 462.084 218.193C467.897 225.38 465.81 233.331 462.084 240.734C461.3 242.009 460.944 242.428 459.941 243.549C458.473 245.084 456.532 246.261 454.632 247.188C444.726 253.728 414.575 250.416 401.55 250.686C399.96 250.718 396.627 250.457 395.119 250.106C379.786 250.288 364.126 250.092 348.759 250.095L246.371 250.106H204.198C199.588 250.502 174.943 252.521 176.801 245.74C173.686 242.587 172.102 243.625 169.42 238.032Z" fill="#BABFCA"/>
<path d="M169.42 238.032C173.625 238.046 175.906 241.75 180.431 242.217C181.695 242.176 182.774 242.105 184.032 242.217C189.875 241.771 194.996 242.207 200.792 242.232L442.516 243.161C448.175 243.215 454.839 240.784 459.941 243.549C458.473 245.084 456.532 246.261 454.632 247.188C444.725 253.728 414.575 250.416 401.55 250.686C399.96 250.719 396.627 250.457 395.119 250.106C379.786 250.288 364.125 250.092 348.759 250.095L246.371 250.106H204.198C199.588 250.503 174.943 252.522 176.801 245.74C173.686 242.587 172.102 243.625 169.42 238.032Z" fill="url(#paint12_linear_206_4226)"/>
<path d="M176.801 245.74H178.489C181.201 247.142 185.324 247.337 186.475 247.951C194.672 247.703 209.418 247.048 217.336 247.951C221.842 247.64 229.55 247.935 234.253 247.943L406.906 247.956C412.253 247.958 418.759 248.161 423.947 247.951C432.574 247.948 446.841 249.194 454.632 247.188C444.726 253.729 414.576 250.417 401.551 250.687C399.961 250.719 396.627 250.457 395.12 250.106C379.787 250.288 364.126 250.093 348.759 250.095L246.371 250.106H204.199C199.588 250.503 174.943 252.522 176.801 245.74Z" fill="url(#paint13_linear_206_4226)"/>
<path d="M176.801 245.74H178.489C181.201 247.142 185.324 247.337 186.475 247.951C194.672 247.703 209.418 247.048 217.336 247.951C214.981 248.38 211.164 248.219 208.525 248.452C210.704 249.735 240.51 248.52 246.371 250.106H204.199C199.588 250.503 174.943 252.522 176.801 245.74Z" fill="#2E0158"/>
<path d="M176.801 245.74H178.489C181.201 247.142 185.324 247.337 186.475 247.951C188.646 248.384 190.756 248.846 192.986 248.91C199.532 249.101 194.906 249.418 191.457 249.489C195.647 249.589 200.055 249.588 204.199 250.106C199.588 250.503 174.943 252.522 176.801 245.74Z" fill="#530DA7"/>
<path d="M423.946 247.95C432.573 247.947 446.84 249.193 454.631 247.188C444.725 253.728 414.575 250.416 401.55 250.686C399.96 250.718 396.626 250.456 395.119 250.105C400.504 249.848 424.27 250.981 427.005 249.166L427.067 248.648C426.153 248.505 425.459 248.397 424.563 248.135L423.946 247.95Z" fill="#2E0158"/>
<path d="M169.42 238.032C162.366 229.682 170.834 212.779 181.145 211.333C185.356 210.743 191.343 211.123 195.698 211.127L324.698 211.136C313.07 213.858 321.83 210.73 313.776 217.266C314.62 217.902 334.493 216.698 338.314 217.822C334.349 218.242 330.692 217.718 326.467 218.193L187.637 217.135C175.674 217.084 181.198 232.509 180.432 242.218C175.906 241.751 173.625 238.046 169.42 238.032Z" fill="url(#paint14_linear_206_4226)"/>
<path d="M324.699 211.136C352.472 210.81 380.83 211.156 408.659 211.14L435.125 211.128C445.211 211.126 455.156 209.337 462.085 218.193C460.868 218.236 457.193 218.274 456.203 218.626L360.812 218.202C349.77 218.11 337.289 218.595 326.468 218.193C330.692 217.718 334.35 218.241 338.315 217.822C334.494 216.697 314.621 217.901 313.776 217.266C321.831 210.729 313.071 213.858 324.699 211.136Z" fill="#CACAC9"/>
<path d="M462.086 218.192C467.898 225.379 465.812 233.331 462.086 240.734C461.206 239.87 459.37 237.204 458.55 236.071C458.907 232.9 457.98 227.75 457.438 224.569C457.18 222.55 456.995 220.493 456.204 218.626C457.193 218.273 460.868 218.236 462.086 218.192Z" fill="#FEFEFE"/>
<path d="M462.086 218.192L458.55 219.554C458.231 220.732 457.357 223.504 457.438 224.569C457.18 222.55 456.995 220.493 456.204 218.626C457.193 218.273 460.868 218.236 462.086 218.192Z" fill="#FEFEFE"/>
<path d="M458.549 236.07C459.369 237.204 461.205 239.869 462.085 240.733C458.867 240.258 457.978 239.281 458.549 236.07Z" fill="#CACAC9"/>
<defs>
<linearGradient id="paint0_linear_206_4226" x1="463.096" y1="526.84" x2="62.0328" y2="78.5055" gradientUnits="userSpaceOnUse">
<stop stop-color="#7142DE"/>
<stop offset="1" stop-color="#8571EC"/>
</linearGradient>
<linearGradient id="paint1_linear_206_4226" x1="535.5" y1="393.087" x2="541.118" y2="455.493" gradientUnits="userSpaceOnUse">
<stop stop-color="#8A3ADE"/>
<stop offset="1" stop-color="#6C52EC"/>
</linearGradient>
<linearGradient id="paint2_linear_206_4226" x1="606.278" y1="444.428" x2="618.155" y2="450.363" gradientUnits="userSpaceOnUse">
<stop stop-color="#A9A0DE"/>
<stop offset="1" stop-color="#FFFAFB"/>
</linearGradient>
<linearGradient id="paint3_linear_206_4226" x1="335.841" y1="588.743" x2="324.522" y2="698.141" gradientUnits="userSpaceOnUse">
<stop stop-color="#A8ABB7"/>
<stop offset="1" stop-color="#D5D3D3"/>
</linearGradient>
<linearGradient id="paint4_linear_206_4226" x1="468.482" y1="491.377" x2="423.758" y2="472.496" gradientUnits="userSpaceOnUse">
<stop stop-color="#680CC4"/>
<stop offset="1" stop-color="#8A48E7"/>
</linearGradient>
<linearGradient id="paint5_linear_206_4226" x1="347.377" y1="465.618" x2="361.318" y2="459.134" gradientUnits="userSpaceOnUse">
<stop stop-color="#585554"/>
<stop offset="1" stop-color="#927C69"/>
</linearGradient>
<linearGradient id="paint6_linear_206_4226" x1="308.556" y1="339.933" x2="34.9445" y2="115.269" gradientUnits="userSpaceOnUse">
<stop stop-color="#8379E2"/>
<stop offset="1" stop-color="#A5B4E9"/>
</linearGradient>
<linearGradient id="paint7_linear_206_4226" x1="274.464" y1="491.966" x2="257.254" y2="427.53" gradientUnits="userSpaceOnUse">
<stop stop-color="#949390"/>
<stop offset="1" stop-color="#B5B6AC"/>
</linearGradient>
<linearGradient id="paint8_linear_206_4226" x1="466.13" y1="137.295" x2="465.141" y2="120.497" gradientUnits="userSpaceOnUse">
<stop/>
<stop offset="1" stop-color="#323127"/>
</linearGradient>
<linearGradient id="paint9_linear_206_4226" x1="386.895" y1="458.975" x2="249.106" y2="308.558" gradientUnits="userSpaceOnUse">
<stop stop-color="#9D9A9E"/>
<stop offset="1" stop-color="#B8BAAF"/>
</linearGradient>
<linearGradient id="paint10_linear_206_4226" x1="329.552" y1="330.996" x2="312.32" y2="397.943" gradientUnits="userSpaceOnUse">
<stop stop-color="#C7BBBB"/>
<stop offset="1" stop-color="#D7E0E0"/>
</linearGradient>
<linearGradient id="paint11_linear_206_4226" x1="174.792" y1="320.171" x2="172.394" y2="314.484" gradientUnits="userSpaceOnUse">
<stop stop-color="#B7A9AB"/>
<stop offset="1" stop-color="#D2D0D1"/>
</linearGradient>
<linearGradient id="paint12_linear_206_4226" x1="314.792" y1="250.339" x2="314.536" y2="235.674" gradientUnits="userSpaceOnUse">
<stop stop-color="#696979"/>
<stop offset="1" stop-color="#9A918E"/>
</linearGradient>
<linearGradient id="paint13_linear_206_4226" x1="317.646" y1="253.231" x2="317.359" y2="244.505" gradientUnits="userSpaceOnUse">
<stop stop-color="#0A0014"/>
<stop offset="1" stop-color="#180032"/>
</linearGradient>
<linearGradient id="paint14_linear_206_4226" x1="258.461" y1="184.513" x2="224.198" y2="261.456" gradientUnits="userSpaceOnUse">
<stop stop-color="#CECBCB"/>
<stop offset="1" stop-color="white"/>
</linearGradient>
</defs>
</svg>
