<svg width="1065" height="726" viewBox="0 0 1065 726" fill="none" xmlns="http://www.w3.org/2000/svg">
<path d="M72.5215 354.584L73.0352 354.597C78.3074 354.864 82.4999 359.224 82.5 364.562C82.5 370.074 78.0325 374.541 72.5215 374.541H10.4785C4.96751 374.541 0.5 370.074 0.5 364.562C0.500112 359.052 4.96758 354.584 10.4785 354.584H72.5215Z" fill="white" stroke="#7142DE"/>
<circle cx="963.005" cy="410.321" r="16" transform="rotate(-108.428 963.005 410.321)" fill="#F39C9C"/>
<circle cx="782" cy="365.084" r="16" fill="#F39C9C"/>
<path d="M55.5005 358.584C728 140.208 554.191 261.759 781.5 366.584" stroke="#191817" stroke-width="1.54545" stroke-dasharray="3.09 3.09"/>
<path d="M781.267 366.583C596.768 224.083 1286.77 79.5822 963.768 407.582" stroke="#191817" stroke-width="1.54545" stroke-dasharray="3.09 3.09"/>
<path d="M62.5 139.584V353.084C62.5 357.226 59.1421 360.584 55 360.584H29C24.8579 360.584 21.5 357.226 21.5 353.084V139.584H62.5Z" fill="#F39C9C" stroke="#F39C9C"/>
</svg>
