<svg width="503" height="716" viewBox="0 0 503 716" fill="none" xmlns="http://www.w3.org/2000/svg">
<circle cx="439.914" cy="700.005" r="16" fill="#F39C9C"/>
<path d="M370.436 249.104C375.946 249.104 380.414 253.572 380.414 259.083C380.414 264.594 375.947 269.061 370.436 269.061H308.393C302.882 269.061 298.414 264.594 298.414 259.083C298.414 253.572 302.882 249.104 308.393 249.104H370.436Z" stroke="#7142DE"/>
<circle cx="139.914" cy="258.893" r="16" fill="#F39C9C"/>
<path d="M343.915 246.76C691.723 -212.334 268.646 762.097 442.915 700.259" stroke="black" stroke-width="1.54545" stroke-dasharray="3.09 3.09"/>
<path d="M140.913 253.103C-46.5878 -80.2404 172.413 -10.2412 339.913 253.103" stroke="black" stroke-width="1.54545" stroke-dasharray="3.09 3.09"/>
<path d="M357.414 34.1041V247.604C357.414 251.746 354.056 255.104 349.914 255.104H323.914C319.772 255.104 316.414 251.746 316.414 247.604V34.1041H357.414Z" fill="#F39C9C" stroke="#F39C9C"/>
</svg>
