<svg width="989" height="633" viewBox="0 0 989 633" fill="none" xmlns="http://www.w3.org/2000/svg">
<path d="M131.052 308.3C136.563 308.3 141.031 312.767 141.031 318.278C141.031 323.789 136.563 328.257 131.052 328.257H10.4785C4.96752 328.257 0.5 323.789 0.5 318.278C0.500112 312.767 4.96758 308.3 10.4785 308.3H131.052Z" fill="white" stroke="#7142DE"/>
<circle cx="887.132" cy="364.036" r="16" transform="rotate(-108.428 887.132 364.036)" fill="#F39C9C"/>
<circle cx="706.127" cy="318.799" r="16" fill="#F39C9C"/>
<path d="M72.6279 311.923C746.628 122.423 446.628 257.423 705.627 320.299" stroke="#191817" stroke-width="1.54545" stroke-dasharray="3.09 3.09"/>
<path d="M705.394 320.298C520.895 177.798 1210.89 33.2971 887.894 361.297" stroke="#191817" stroke-width="1.54545" stroke-dasharray="3.09 3.09"/>
<path d="M92.627 93.2988V306.799C92.627 310.941 89.2691 314.299 85.127 314.299H59.127C54.9848 314.299 51.627 310.941 51.627 306.799V93.2988H92.627Z" fill="#F39C9C" stroke="#F39C9C"/>
</svg>
