<svg width="706" height="761" viewBox="0 0 706 761" fill="none" xmlns="http://www.w3.org/2000/svg">
<circle cx="643" cy="744.244" r="16" fill="#F39C9C"/>
<path d="M72.5215 293.344L73.0352 293.357C78.3074 293.625 82.4999 297.984 82.5 303.323C82.5 308.834 78.0325 313.301 72.5215 313.302H10.4785C4.96751 313.301 0.5 308.834 0.5 303.323C0.500112 297.812 4.96758 293.345 10.4785 293.344H72.5215Z" fill="white" stroke="#7142DE"/>
<circle cx="644" cy="303.132" r="16" fill="#F39C9C"/>
<path d="M643.431 303.356C372.276 282.856 764.777 386.856 642.933 744.856" stroke="black" stroke-width="1.54545" stroke-dasharray="3.09 3.09"/>
<path d="M42.5 297.344C715 78.9675 417.192 199.142 644.5 303.968" stroke="black" stroke-width="1.54545" stroke-dasharray="3.09 3.09"/>
<path d="M62.5 78.3435V291.844C62.5 295.986 59.1421 299.344 55 299.344H29C24.8579 299.344 21.5 295.986 21.5 291.844V78.3435H62.5Z" fill="#F39C9C" stroke="#F39C9C"/>
</svg>
