<svg width="99" height="90" viewBox="0 0 99 90" fill="none" xmlns="http://www.w3.org/2000/svg">
<path d="M65.2496 11.8556L69.0299 9.39155L86.3271 35.9285L82.5468 38.3926L65.2496 11.8556ZM83.6859 48.4585L45.8079 73.1479L43.3438 69.3675L39.5386 71.8478L42.0027 75.6282L38.2224 78.0923L45.6308 89.4581L98.6799 54.88L91.2715 43.5141L87.4911 45.9782L82.5468 38.3926L78.7416 40.8729L83.6859 48.4585ZM88.6303 56.044L81.0696 60.9722L78.5893 57.167L86.15 52.2388L88.6303 56.044ZM58.9803 10.5556L62.7855 8.07529L65.2496 11.8556L61.4444 14.3359L58.9803 10.5556ZM53.8837 19.2641L57.664 16.8L65.0887 28.1908L61.3084 30.6548L53.8837 19.2641ZM48.9555 11.7034L56.5162 6.77524L58.9803 10.5556L51.4196 15.4837L48.9555 11.7034ZM42.5178 26.6725L46.2981 24.2084L53.7228 35.5992L49.9425 38.0633L42.5178 26.6725ZM31.127 34.0972L34.9323 31.6169L42.3569 43.0077L38.5517 45.4879L31.127 34.0972ZM26.1989 26.5365L48.9555 11.7034L46.4753 7.89819L27.5238 20.251L15.171 1.29956L11.3658 3.77985L26.1989 26.5365ZM1.34102 4.92767L8.9017 -0.000488118L11.3658 3.77985L3.8051 8.70801L1.34102 4.92767ZM29.6499 56.6767L33.4551 54.1964L3.8051 8.70801L-0.000108127 11.1883L17.2971 37.7253L13.5167 40.1894L15.9808 43.9697L19.7612 41.5056L29.6499 56.6767ZM33.278 70.5067L37.0583 68.0426L39.5386 71.8478L35.7583 74.3119L33.278 70.5067ZM24.5533 65.3852L28.3336 62.9211L33.278 70.5067L29.4977 72.9708L24.5533 65.3852ZM12.2005 46.4338L15.9808 43.9697L18.4611 47.7749L14.6808 50.239L12.2005 46.4338ZM10.8756 52.7193L14.6808 50.239L24.5533 65.3852L20.7481 67.8655L10.8756 52.7193Z" fill="#191817"/>
</svg>
